<?xml version="1.0" encoding="UTF-8" standalone="no"?>
<svg
   xmlns:dc="http://purl.org/dc/elements/1.1/"
   xmlns:cc="http://creativecommons.org/ns#"
   xmlns:rdf="http://www.w3.org/1999/02/22-rdf-syntax-ns#"
   xmlns:svg="http://www.w3.org/2000/svg"
   xmlns="http://www.w3.org/2000/svg"
   id="svg8"
   version="1.1"
   viewBox="0 0 92.618561 131.97676"
   height="131.97676mm"
   width="92.618561mm">
  <defs
     id="defs2" />
  <metadata
     id="metadata5">
    <rdf:RDF>
      <cc:Work
         rdf:about="">
        <dc:format>image/svg+xml</dc:format>
        <dc:type
           rdf:resource="http://purl.org/dc/dcmitype/StillImage" />
        <dc:title></dc:title>
      </cc:Work>
    </rdf:RDF>
  </metadata>
  <g
     transform="translate(-46.120099,-110.17338)"
     id="layer1">
    <path
       id="path880"
       d="m 125.20482,241.85096 c -2.63493,-0.73953 -4.80616,-2.55173 -5.90648,-4.92978 -0.83711,-1.80919 -0.79773,-5.95318 0.075,-7.89012 0.82556,-1.83226 2.99386,-3.81381 4.99085,-4.56098 4.56928,-1.70958 10.54519,-0.41383 12.69232,2.75206 0.86739,1.27896 1.48839,2.97236 1.23836,3.37691 -0.0759,0.1228 -1.43905,0.22327 -3.02924,0.22327 h -2.89125 l -0.37958,-0.90847 c -0.47054,-1.12615 -1.67288,-1.78146 -3.26856,-1.78146 -2.32075,0 -3.53397,1.68135 -3.54666,4.91516 -0.0136,3.46106 1.3494,5.0746 4.08748,4.83889 1.39869,-0.12041 2.31764,-0.78648 2.84646,-2.06318 l 0.31796,-0.76761 h 3.01061 c 2.94649,0 3.01055,0.0127 3.00802,0.59531 -0.008,1.88648 -2.32109,4.74088 -4.71502,5.81894 -1.54003,0.69351 -6.61006,0.92 -8.53025,0.38106 z m -78.642584,-0.0844 c -0.10151,-0.10152 -0.184565,-4.09379 -0.184565,-8.87172 v -8.68716 h 5.765244 c 7.75462,0 9.904961,0.57969 11.466232,3.09105 0.900166,1.44795 0.892916,4.24716 -0.01511,5.83501 -1.251458,2.18839 -3.174225,2.99409 -7.691364,3.22293 l -3.042708,0.15414 -0.132292,2.64583 -0.132291,2.64583 -2.924289,0.0743 c -1.60836,0.0409 -3.007344,-0.009 -3.108854,-0.11024 z m 10.524953,-9.93132 c 1.260989,-0.57454 1.223897,-2.58835 -0.05667,-3.077 -1.219759,-0.46545 -3.182374,-0.63368 -3.763603,-0.32262 -0.447416,0.23946 -0.539242,0.54983 -0.539242,1.82269 0,0.84375 0.07938,1.61347 0.17639,1.71048 0.296857,0.29686 3.460131,0.19587 4.183128,-0.13355 z m 6.306442,9.66863 c -0.150598,-0.39245 5.988547,-16.15127 6.609212,-16.96546 0.176499,-0.23153 1.185016,-0.33073 3.362328,-0.33073 2.171584,0 3.189536,0.0998 3.37307,0.33073 0.572378,0.72016 6.93566,16.98304 6.726788,17.19192 -0.122775,0.12277 -1.522736,0.18923 -3.111022,0.14768 l -2.887794,-0.0755 -0.508315,-1.12447 -0.508312,-1.12448 h -3.13911 -3.139109 l -0.510363,1.19062 -0.510362,1.19063 h -2.795831 c -2.339208,0 -2.822837,-0.0704 -2.96118,-0.4309 z m 11.695361,-5.92563 c 0.241814,-0.39125 -1.457227,-5.32991 -1.794917,-5.21734 -0.349237,0.11641 -1.818098,4.70049 -1.652672,5.15772 0.147058,0.40646 3.200598,0.45926 3.447589,0.0596 z m 11.096363,6.02351 c -0.07028,-0.18316 -0.09631,-4.14199 -0.05784,-8.7974 l 0.06995,-8.46437 2.976983,-0.0748 2.97698,-0.0748 3.192511,4.30814 c 1.755877,2.36949 3.317577,4.30815 3.470437,4.30815 0.18115,0 0.29008,-1.47407 0.3128,-4.23333 l 0.0349,-4.23333 2.888994,-0.0756 c 2.13319,-0.0558 2.94545,0.0134 3.1048,0.26459 0.1187,0.18707 0.21764,4.04626 0.21987,8.57597 0.003,6.72893 -0.0635,8.29191 -0.36531,8.54237 -0.24173,0.20061 -1.31598,0.28038 -3.10885,0.23083 l -2.739504,-0.0757 -3.25495,-4.36562 c -1.790221,-2.40109 -3.373125,-4.40709 -3.517561,-4.45776 -0.171532,-0.0602 -0.198893,1.3362 -0.07889,4.02621 0.141206,3.16525 0.105831,4.21221 -0.152855,4.52391 -0.443248,0.53408 -5.770499,0.59878 -5.972437,0.0725 z m 23.286685,0.009 c -0.0721,-0.18795 -0.0997,-4.1507 -0.0612,-8.8061 l 0.0699,-8.46437 3.11243,-0.0746 3.11243,-0.0746 -0.0697,8.80582 -0.0697,8.80582 -2.98153,0.0749 c -2.24762,0.0564 -3.0138,-0.009 -3.11265,-0.26687 z M 73.629754,221.60933 c -2.215583,-0.73981 -2.997697,-1.22769 -4.31257,-2.69014 -1.58767,-1.76587 -2.168335,-3.46783 -2.167517,-6.35312 5.29e-4,-1.92514 0.107114,-2.46621 0.740145,-3.75778 0.924253,-1.88574 2.895507,-3.69277 4.892844,-4.48522 1.271781,-0.50458 2.006891,-0.59852 4.683557,-0.59852 2.676665,0 3.411775,0.0939 4.683556,0.59852 1.995858,0.79186 3.968165,2.59933 4.894265,4.48522 0.65364,1.33106 0.740929,1.80494 0.740929,4.02236 0,2.21742 -0.08729,2.6913 -0.740929,4.02236 -0.932053,1.89801 -2.912078,3.7048 -4.894265,4.46605 -2.138177,0.82116 -6.486456,0.9693 -8.520015,0.29027 z m 6.024253,-4.43533 c 1.588855,-1.04106 2.188298,-4.91362 1.106504,-7.14831 -0.719492,-1.48628 -1.642684,-2.06496 -3.294298,-2.06496 -1.67109,0 -2.575423,0.57995 -3.327784,2.13413 -0.479457,0.99042 -0.554934,1.51181 -0.451707,3.1203 0.144081,2.24512 0.798748,3.54434 2.127493,4.2221 1.004054,0.51215 2.849473,0.38562 3.839792,-0.26326 z m -33.38032,3.96938 c -0.21187,-0.55212 -0.201263,-15.67451 0.01156,-16.46927 l 0.164926,-0.61592 6.247606,0.0954 c 5.610442,0.0857 6.388484,0.15236 7.628938,0.6537 2.035667,0.82274 3.380454,2.01098 4.227054,3.73499 0.648441,1.32047 0.740651,1.8094 0.733923,3.89147 -0.01244,3.84925 -1.141225,6.18942 -3.71225,7.69614 -2.072603,1.21463 -3.481125,1.42543 -9.547061,1.42884 -4.858885,0.003 -5.615196,-0.0519 -5.754687,-0.41538 z m 10.670969,-4.29502 c 1.326385,-0.98389 1.722522,-1.82199 1.811565,-3.83269 0.147531,-3.33152 -1.019681,-4.69945 -4.071702,-4.77191 l -1.824556,-0.0433 -0.07297,4.35547 c -0.04013,2.39551 -0.0077,4.52555 0.07207,4.73343 0.203409,0.53008 3.214669,0.20506 4.085593,-0.44098 z m 34.006488,4.38909 c -0.07215,-0.18803 -0.09969,-4.09125 -0.06118,-8.67382 l 0.07,-8.33194 3.076286,-0.0743 3.076286,-0.0743 3.226224,4.37374 c 1.77443,2.40556 3.32985,4.37374 3.45651,4.37374 0.12666,0 0.20756,-1.93477 0.17978,-4.29948 l -0.0505,-4.29948 3.10885,-0.0745 3.10886,-0.0745 c 0,5.82643 0,11.65286 0,17.47929 l -3.10886,-0.002 -3.10885,-0.002 -3.25535,-4.39364 c -1.790444,-2.4165 -3.332194,-4.31679 -3.426114,-4.22286 -0.0939,0.0939 -0.17683,2.04213 -0.18424,4.32937 l -0.0135,4.15854 -2.981519,0.0749 c -2.248244,0.0564 -3.013789,-0.009 -3.112712,-0.26702 z m 35.595286,-5.84034 c 0,-4.44206 -0.0887,-6.25352 -0.31751,-6.48229 -0.20322,-0.20323 -1.23962,-0.3175 -2.87955,-0.3175 -2.90435,0 -2.87759,0.0225 -2.88475,-2.42576 -0.007,-2.24409 -0.77787,-2.07216 9.29581,-2.07216 h 8.97823 l -0.0769,2.18281 -0.0768,2.18282 -2.49923,0.0768 c -1.37457,0.0422 -2.65449,0.20562 -2.84427,0.36312 -0.26567,0.22049 -0.34504,1.7093 -0.34504,6.47168 v 6.18531 h -3.17501 -3.17499 z m -13.0387,-2.72877 c -0.10476,-0.10476 -0.19047,-0.51605 -0.19047,-0.91399 0,-0.54031 0.22454,-0.856 0.88679,-1.24674 0.9102,-0.53703 1.43843,-1.60243 0.87861,-1.77209 -0.17061,-0.0517 -0.63762,-0.16575 -1.0378,-0.25344 -0.72,-0.15776 -0.7276,-0.1816 -0.7276,-2.28098 v -2.12156 l 2.44739,0.0761 2.4474,0.0761 -0.002,2.38125 c -10e-4,1.30969 -0.0858,2.68139 -0.18826,3.04822 -0.22575,0.80814 -1.68353,2.34677 -2.52745,2.66763 -1.08993,0.41439 -1.79186,0.53436 -1.98666,0.33955 z m 13.17099,-16.09693 c -1.30969,-0.34255 -3.27422,-0.94344 -4.36563,-1.33532 -2.72696,-0.97913 -9.525,-4.26832 -9.525,-4.6086 0,-0.15263 0.56555,-0.56767 1.25677,-0.92232 0.69123,-0.35465 1.4825,-0.81424 1.7584,-1.02132 0.60365,-0.45309 0.9522,-0.16927 -4.76322,-3.87868 -2.19836,-1.42676 -4.07197,-2.7154 -4.16358,-2.86364 -0.0916,-0.14823 0.0716,-0.57229 0.36267,-0.94234 0.8783,-1.11658 2.05902,-3.70441 2.69571,-5.90827 0.52514,-1.81776 0.60113,-2.68063 0.60261,-6.84256 10e-4,-4.03487 -0.0931,-5.18578 -0.61838,-7.53294 -1.42552,-6.3692 -3.35056,-10.24217 -6.77659,-13.63373 -2.55632,-2.53059 -4.216424,-3.55202 -8.009782,-4.92822 -3.331464,-1.20863 -4.839768,-2.16997 -6.26555,-3.99343 -1.551725,-1.98455 -9.112554,-8.86384 -10.474894,-9.5307 -1.439029,-0.70439 -4.235757,-0.92517 -6.024306,-0.47557 -3.65979,0.91998 -7.474862,4.0732 -6.693836,5.53256 0.383918,0.71736 1.447496,1.06441 4.061828,1.32541 3.287916,0.32824 5.242274,1.33065 8.011078,4.10893 1.930016,1.93662 2.214004,2.35767 2.98568,4.42662 1.029237,2.7595 2.785652,5.70691 5.7654,9.67481 1.224804,1.63098 2.520257,3.59551 2.878786,4.36563 0.751588,1.61442 0.866034,3.69513 0.280339,5.0969 -0.478472,1.14515 -2.465464,3.31601 -3.030437,3.31086 -1.037481,-0.009 -16.382759,-14.85983 -22.004716,-21.29505 -1.525563,-1.74625 -3.839519,-4.51261 -5.142121,-6.14747 -1.557486,-1.95476 -2.457747,-2.8831 -2.629411,-2.71144 -0.143573,0.14357 -0.508743,0.87724 -0.81149,1.63038 -0.302744,0.75313 -0.665642,1.40711 -0.806434,1.45329 -0.318619,0.1045 -2.793146,-3.71262 -4.574868,-7.05705 -2.888996,-5.42287 -4.073308,-9.73846 -3.470434,-12.64616 0.3806,-1.83568 1.888519,-3.5275 3.556857,-3.99066 3.357766,-0.93216 9.417108,0.34188 16.123761,3.39019 l 1.837137,0.83502 0.808697,-0.60541 c 7.995877,-5.98595 15.884406,-8.67521 25.454803,-8.67775 8.794373,-0.002 16.727533,2.49175 23.831583,7.49236 3.03381,2.13553 7.68571,6.8093 9.9224,9.96908 8.95948,12.65703 10.26935,29.57884 3.36686,43.49563 -0.72031,1.45229 -1.30965,2.72455 -1.30965,2.82723 0,0.10269 0.66558,1.24135 1.47908,2.53036 4.30033,6.81401 6.38452,12.89638 5.6436,16.46996 -0.37519,1.80962 -1.89404,3.50553 -3.55168,3.96571 -1.74891,0.48553 -5.04789,0.33404 -7.67204,-0.3523 z m 6.92842,-3.04218 c 0.46366,-0.2827 0.9844,-0.77819 1.1572,-1.10107 0.50605,-0.94558 0.15231,-3.58706 -0.77639,-5.79748 -0.92469,-2.20084 -3.60654,-6.76796 -4.81269,-8.19586 l -0.78223,-0.92605 -1.0984,1.32292 c -1.76366,2.12416 -5.803,5.98588 -7.61071,7.27604 -2.59169,1.8497 -2.76195,2.00628 -2.55165,2.34655 0.24945,0.40362 5.36577,2.97333 8.01612,4.02617 4.02622,1.59938 6.95933,1.96305 8.45875,1.04878 z M 122.9169,163.51505 c 0.85713,-0.37016 6.3692,-5.10229 7.02384,-6.02998 0.58888,-0.83453 0.81342,-2.00734 0.55977,-2.92382 -0.13474,-0.48683 -1.0803,-1.77105 -2.16289,-2.93752 -1.66769,-1.79692 -2.0673,-2.09107 -3.0049,-2.21187 -1.44708,-0.18645 -2.04552,0.16322 -5.53317,3.23298 -3.08043,2.71134 -3.83646,3.70558 -3.83646,5.04528 0,1.87654 3.96261,6.12729 5.76319,6.18226 0.18657,0.006 0.72235,-0.15511 1.19062,-0.35733 z m -6.51346,-10.82034 c 0.76418,-0.42885 9.007,-7.8284 10.3809,-9.3189 0.91956,-0.9976 1.085,-1.35056 1.085,-2.31475 0,-1.24793 -0.24956,-1.69917 -2.20087,-3.97961 -1.98646,-2.32151 -3.41886,-2.83277 -5.07517,-1.81147 -1.21329,0.74813 -10.25636,8.93692 -10.78038,9.76197 -0.52794,0.83124 -0.60744,2.47367 -0.16087,3.3239 0.51856,0.98732 2.95604,3.67978 3.7938,4.19068 0.91168,0.55597 2.1228,0.61665 2.95759,0.14818 z m -7.01804,-9.86543 c 0.7336,-0.37936 10.5735,-9.10385 11.67894,-10.35506 0.74963,-0.84849 1.00344,-2.09945 0.6404,-3.15637 -0.36038,-1.0492 -2.87096,-4.04759 -3.93039,-4.69407 -0.38625,-0.2357 -1.18079,-0.42855 -1.76564,-0.42855 -1.25851,0 -0.9962,-0.2008 -8.04084,6.15535 -4.28318,3.86458 -5.27164,4.88929 -5.52182,5.7243 -0.4356,1.4539 -0.0164,2.4561 1.93522,4.62667 2.20767,2.45534 3.39463,2.96003 5.00413,2.12773 z m -51.398902,-9.83665 c 1.145024,-2.33846 3.841617,-6.34604 5.823251,-8.65431 0.869403,-1.01271 1.513033,-1.95083 1.430293,-2.08471 -0.08274,-0.13388 -1.235234,-0.75592 -2.561093,-1.3823 -11.381396,-5.37699 -15.567009,-2.55889 -10.438553,7.02809 1.445022,2.70128 4.228166,6.87917 4.582631,6.87917 0.158943,0 0.682503,-0.80368 1.163471,-1.78594 z m 36.809923,60.98336 c 0,-0.18361 1.908825,-2.23744 4.241835,-4.56407 l 4.241834,-4.23023 1.13562,0.66146 c 5.14857,2.99887 7.31411,4.41128 7.25236,4.73013 -0.14905,0.76952 -7.01557,2.90127 -11.1361,3.45727 -2.921014,0.39414 -5.735549,0.36737 -5.735549,-0.0546 z M 65.585688,181.99476 c -6.37699,-6.5075 -10.47346,-14.86982 -11.788846,-24.06515 -0.333359,-2.33039 -0.338585,-8.64828 -0.0093,-11.18401 0.396388,-3.05201 1.321903,-6.67537 1.705089,-6.67537 0.186819,0 0.643532,0.45917 1.014917,1.02037 1.098323,1.65968 5.816981,7.49081 8.761704,10.82737 3.409431,3.86311 10.124922,10.64706 14.313577,14.45951 1.74625,1.58941 3.175,3.09062 3.175,3.33601 0,0.42411 -14.321298,14.54216 -14.75151,14.54216 -0.112824,0 -1.202129,-1.0174 -2.420681,-2.26089 z"
       style="fill:#000000;stroke-width:0.26458332" />
  </g>
</svg>
